<svg width="512" height="512" viewBox="0 0 512 512" fill="none" xmlns="http://www.w3.org/2000/svg">
<g clip-path="url(#clip0_60_26)">
<path d="M511.94 0H0V512H511.94V0Z" fill="#123A5F"/>
<path d="M122.656 385.44C168.051 431.83 236.053 455.97 308.824 440.09C385.475 423.37 444.529 361.8 458.807 284.65C465.319 250.373 462.772 214.99 451.418 182L512.001 262.42V511.49H221.225" fill="#145593"/>
<path d="M466.756 251.48C466.756 360.9 378.066 449.6 268.669 449.6C216.134 449.589 165.755 428.712 128.608 391.56C91.462 354.407 70.59 304.02 70.582 251.48C70.582 142.08 159.272 53.3799 268.669 53.3799C294.685 53.3655 320.449 58.4795 344.488 68.4297C368.527 78.3799 390.369 92.9712 408.766 111.369C427.163 129.767 441.753 151.611 451.704 175.652C461.654 199.694 466.769 225.461 466.756 251.48Z" fill="#D2D700"/>
<path d="M378.5 437C417.436 437 449 405.436 449 366.5C449 327.564 417.436 296 378.5 296C339.564 296 308 327.564 308 366.5C308 405.436 339.564 437 378.5 437Z" fill="#0B5690"/>
<path d="M185.758 395.33C186.507 394.05 187.65 393.048 189.017 392.474C190.384 391.9 191.9 391.787 193.338 392.15C194.703 392.536 196.039 393.017 197.337 393.59C205.506 397.34 213.882 400.622 222.424 403.42C230.691 406.091 239.191 407.976 247.811 409.05C274.751 412.656 302.165 408.796 327.062 397.89C331.01 401.317 334.737 404.991 338.221 408.89C290.406 431.21 241.982 430.39 193.648 408.27C191.033 407.077 188.618 405.489 186.488 403.56C184.219 401.47 184.219 398 185.758 395.33Z" fill="#0B5690"/>
<path d="M114.987 222.58C113.615 231.466 112.76 240.425 112.427 249.41C112.36 250.821 112.19 252.225 111.917 253.61C111.568 255.042 110.776 256.327 109.654 257.282C108.532 258.237 107.137 258.814 105.668 258.93C102.598 259.14 99.5286 257.6 98.6687 254.63C97.9526 251.856 97.6427 248.993 97.7488 246.13C99.7986 191.35 122.216 146.8 166.041 113.93C200.037 88.4401 238.732 77.7901 281.027 81.5801C318.303 84.8501 350.959 99.2901 378.916 124.28C380.205 125.426 381.341 126.733 382.296 128.17C382.831 128.915 383.214 129.759 383.422 130.653C383.63 131.546 383.658 132.472 383.506 133.377C383.353 134.282 383.023 135.148 382.534 135.924C382.044 136.701 381.406 137.372 380.656 137.9C379.639 138.623 378.447 139.06 377.204 139.167C375.961 139.275 374.712 139.048 373.587 138.51C372.382 137.943 371.277 137.183 370.317 136.26C347.58 115.47 321.063 102.36 290.756 97.5501C248.571 90.8901 209.976 100.21 175.26 125.3C150.323 143.219 131.517 168.393 121.406 197.39C118.477 205.565 116.327 214 114.987 222.58Z" fill="#0B5690"/>
<path d="M319.007 195.816C318.204 195.817 317.409 195.975 316.668 196.28C315.926 196.586 315.253 197.033 314.686 197.596C313.564 198.707 312.889 200.276 312.889 201.887V275.136C312.889 276.746 313.536 278.288 314.686 279.426C315.253 279.989 315.928 280.435 316.669 280.74C317.411 281.045 318.207 281.201 319.01 281.201C319.813 281.201 320.608 281.045 321.35 280.74C322.092 280.435 322.766 279.989 323.334 279.426C324.456 278.316 325.13 276.746 325.13 275.136V201.887C325.13 200.276 324.484 198.734 323.334 197.596C322.766 197.032 322.092 196.585 321.349 196.279C320.607 195.974 319.811 195.817 319.007 195.816ZM181.776 213.87C176.109 213.72 170.479 214.939 165.378 217.444C159.548 220.308 154.646 224.742 151.22 230.225C147.793 235.708 145.986 242.035 146 248.484C146.014 254.933 147.842 261.256 151.285 266.727C154.729 272.199 159.649 276.607 165.487 279.448C171.326 282.289 177.853 283.458 184.323 282.817C190.796 282.174 196.959 279.748 202.112 275.814C202.811 275.27 203.38 274.579 203.777 273.791C204.174 273.003 204.389 272.137 204.407 271.257C204.425 270.375 204.244 269.501 203.878 268.697C203.513 267.893 202.971 267.179 202.293 266.608C201.238 265.703 199.904 265.183 198.508 265.133C197.111 265.083 195.746 265.509 194.63 266.337C191.265 268.886 187.245 270.45 183.03 270.856C178.815 271.261 174.572 270.492 170.778 268.631C166.984 266.771 163.784 263.901 161.544 260.337C159.304 256.772 158.114 252.659 158.108 248.46C158.101 244.261 159.278 240.144 161.505 236.572C163.731 233.001 166.92 230.117 170.712 228.245C174.503 226.376 178.744 225.597 182.959 225.988C187.173 226.38 191.196 227.933 194.57 230.474C195.674 231.317 197.038 231.759 198.431 231.725C199.825 231.691 201.165 231.185 202.227 230.29C202.914 229.707 203.461 228.983 203.826 228.169C204.191 227.355 204.374 226.465 204.357 225.571C204.34 224.676 204.115 223.802 203.711 223.005C203.307 222.208 202.728 221.504 202.019 220.96C196.851 217.042 190.679 214.637 184.202 214.016C183.392 213.938 182.585 213.891 181.776 213.87ZM269.139 213.87C268.164 213.886 267.179 213.943 266.187 214.043C260.837 214.604 255.691 216.385 251.153 219.245C246.612 222.106 242.801 225.967 240.018 230.529C237.236 235.094 235.556 240.235 235.111 245.55C234.662 250.866 235.461 256.218 237.444 261.173C239.427 266.129 242.54 270.565 246.541 274.132C250.539 277.697 255.315 280.298 260.496 281.732C265.676 283.165 271.155 283.386 276.407 282.383C281.659 281.38 286.661 279.182 290.943 275.955C291.664 275.407 292.251 274.706 292.663 273.904C293.075 273.104 293.303 272.222 293.326 271.322C293.371 269.726 292.776 268.178 291.67 267.016C290.564 265.855 289.038 265.175 287.427 265.127C286.043 265.083 284.686 265.51 283.582 266.337C279.346 269.577 274.079 271.211 268.734 270.942C264.387 270.72 260.195 269.265 256.679 266.76C253.131 264.255 250.378 260.8 248.743 256.8C248.52 256.261 248.506 255.659 248.704 255.11C248.902 254.561 249.298 254.104 249.816 253.828C250.16 253.645 250.544 253.55 250.934 253.551H293.402C294.759 253.556 296.106 253.292 297.362 252.781C298.618 252.27 299.763 251.517 300.725 250.567C301.687 249.618 302.449 248.492 302.97 247.247C303.493 246.005 303.763 244.672 303.765 243.325C303.681 240.437 303.036 237.589 301.875 234.939L301.837 234.928C296.326 222.57 283.762 213.614 269.139 213.87ZM219.676 215.573C216.303 215.573 213.564 218.288 213.564 221.638V275.13C213.564 278.48 216.303 281.195 219.676 281.195C223.05 281.195 225.789 278.48 225.789 275.13V221.638C225.789 218.288 223.05 215.573 219.676 215.573ZM342.706 225.82C339.711 229.268 337.434 233.268 336.008 237.592C334.575 241.913 334.017 246.472 334.365 251.007C334.712 255.542 335.965 259.968 338.012 264.026C340.087 268.081 342.95 271.69 346.436 274.647C349.921 277.605 353.963 279.852 358.326 281.26C362.69 282.668 367.291 283.206 371.865 282.844C376.436 282.483 380.894 281.227 384.977 279.15C389.061 277.074 392.69 274.221 395.658 270.752L386.401 262.93C384.273 265.447 381.612 267.471 378.608 268.859C375.618 270.24 372.368 270.953 369.072 270.959C364.734 270.95 360.49 269.709 356.842 267.384C353.177 265.045 350.266 261.712 348.429 257.777C346.622 253.842 345.994 249.477 346.62 245.199C347.246 240.921 349.101 236.912 351.962 233.648L342.706 225.82ZM269.796 225.896C274.343 225.897 278.785 227.251 282.547 229.78C286.312 232.312 289.223 235.904 290.905 240.092C291.046 240.449 291.099 240.834 291.058 241.215C291.017 241.597 290.882 241.963 290.665 242.282C290.448 242.6 290.157 242.862 289.815 243.043C289.473 243.224 289.09 243.32 288.703 243.32H250.89C250.502 243.321 250.12 243.226 249.778 243.043C249.436 242.86 249.142 242.598 248.924 242.284C248.705 241.97 248.574 241.598 248.535 241.215C248.494 240.834 248.547 240.449 248.688 240.092C250.37 235.904 253.281 232.312 257.046 229.78C260.809 227.28 265.251 225.896 269.796 225.896Z" fill="#0B5690"/>
<path d="M219.793 194C217.712 194 215.722 194.822 214.257 196.282C212.788 197.744 211.963 199.726 211.965 201.791C212.005 203.829 212.847 205.77 214.312 207.197C215.777 208.622 217.743 209.425 219.793 209.425C221.844 209.425 223.816 208.625 225.28 207.197C226.745 205.77 227.587 203.829 227.627 201.791H227.622C227.624 199.726 226.799 197.744 225.33 196.282C223.862 194.822 221.875 194 219.793 194ZM369.077 213.75C364.078 213.744 359.134 214.813 354.596 216.88C350.049 218.948 346.005 221.967 342.741 225.73L351.954 233.571C355.881 229.072 361.437 226.298 367.409 225.861C373.38 225.424 379.286 227.346 383.837 231.218C388.389 235.09 391.217 240.595 391.71 246.529C392.197 252.463 390.305 258.348 386.447 262.905L395.665 270.74C399.95 265.699 402.704 259.543 403.592 253C404.478 246.458 403.464 239.8 400.67 233.81C397.879 227.821 393.423 222.75 387.825 219.194C382.215 215.664 375.716 213.75 369.077 213.75Z" fill="#0B5690"/>
<path d="M364.163 374.053C360.563 354.053 375.996 340.053 384.163 335.553C375.664 332.553 332.163 332.053 329.163 351.553C326.763 367.153 351.496 373.053 364.163 374.053Z" fill="#D2D700"/>
<path d="M369.663 389.053C368.063 387.853 365.996 381.553 365.163 378.553C345.563 378.553 333.329 369.886 329.663 365.553C328.463 367.553 329.163 371.719 329.663 373.553C336.463 386.753 359.163 389.386 369.663 389.053Z" fill="#D2D700"/>
<path d="M337.162 395.553C328.362 391.153 328.496 383.719 329.663 380.553C340.063 392.553 362.662 394.219 372.662 393.553C373.862 395.953 380.162 400.219 383.162 402.053C359.162 406.053 348.162 401.053 337.162 395.553Z" fill="#D2D700"/>
<circle cx="405" cy="370" r="34" fill="#D2D700"/>
<path d="M404.557 392.364V348.727H407.352V392.364H404.557ZM411.972 363.131C411.835 361.756 411.25 360.687 410.216 359.926C409.182 359.165 407.778 358.784 406.006 358.784C404.801 358.784 403.784 358.955 402.955 359.295C402.125 359.625 401.489 360.085 401.045 360.676C400.614 361.267 400.398 361.938 400.398 362.688C400.375 363.312 400.506 363.858 400.79 364.324C401.085 364.79 401.489 365.193 402 365.534C402.511 365.864 403.102 366.153 403.773 366.403C404.443 366.642 405.159 366.847 405.92 367.017L409.057 367.767C410.58 368.108 411.977 368.562 413.25 369.131C414.523 369.699 415.625 370.398 416.557 371.227C417.489 372.057 418.21 373.034 418.722 374.159C419.244 375.284 419.511 376.574 419.523 378.028C419.511 380.165 418.966 382.017 417.886 383.585C416.818 385.142 415.273 386.352 413.25 387.216C411.239 388.068 408.813 388.494 405.972 388.494C403.153 388.494 400.699 388.062 398.608 387.199C396.528 386.335 394.903 385.057 393.733 383.364C392.574 381.659 391.966 379.551 391.909 377.04H399.051C399.131 378.21 399.466 379.187 400.057 379.972C400.659 380.744 401.46 381.33 402.46 381.727C403.472 382.114 404.614 382.307 405.886 382.307C407.136 382.307 408.222 382.125 409.142 381.761C410.074 381.398 410.795 380.892 411.307 380.244C411.818 379.597 412.074 378.852 412.074 378.011C412.074 377.227 411.841 376.568 411.375 376.034C410.92 375.5 410.25 375.045 409.364 374.67C408.489 374.295 407.415 373.955 406.142 373.648L402.341 372.693C399.398 371.977 397.074 370.858 395.369 369.335C393.665 367.812 392.818 365.761 392.83 363.182C392.818 361.068 393.381 359.222 394.517 357.642C395.665 356.062 397.239 354.83 399.239 353.943C401.239 353.057 403.511 352.614 406.057 352.614C408.648 352.614 410.909 353.057 412.841 353.943C414.784 354.83 416.295 356.062 417.375 357.642C418.455 359.222 419.011 361.051 419.045 363.131H411.972Z" fill="#0B5690"/>
</g>
<defs>
<clipPath id="clip0_60_26">
<rect width="512" height="512" fill="white"/>
</clipPath>
</defs>
</svg>
